<?xml version="1.0" encoding="iso-8859-1"?>
<!-- Generator: Adobe Illustrator 18.0.0, SVG Export Plug-In . SVG Version: 6.00 Build 0)  -->
<!DOCTYPE svg PUBLIC "-//W3C//DTD SVG 1.1//EN" "http://www.w3.org/Graphics/SVG/1.1/DTD/svg11.dtd">
<svg version="1.1" id="Capa_1" xmlns="http://www.w3.org/2000/svg" xmlns:xlink="http://www.w3.org/1999/xlink" x="0px" y="0px"
	 viewBox="0 0 445.479 445.479" style="enable-background:new 0 0 445.479 445.479;" xml:space="preserve">
<path d="M337.765,0H107.714C69.41,0,38.248,31.162,38.248,69.466v306.547c0,38.304,31.162,69.466,69.466,69.466h230.051
	c38.304,0,69.466-31.162,69.466-69.466V69.466C407.231,31.162,376.069,0,337.765,0z M107.714,30h230.051
	c21.762,0,39.466,17.704,39.466,39.466v15.03H184.367v-2.75c0-9.665-7.835-17.5-17.5-17.5s-17.5,7.835-17.5,17.5v2.75h-20.872v-2.75
	c0-9.665-7.835-17.5-17.5-17.5s-17.5,7.835-17.5,17.5v2.75H68.248v-15.03C68.248,47.704,85.952,30,107.714,30z M334.484,320.734
	c-9.665,0-17.5,7.835-17.5,17.5v2.749h-20.872v-2.749c0-9.665-7.835-17.5-17.5-17.5s-17.5,7.835-17.5,17.5v2.749H68.248v-65.496
	H205.24v2.749c0,9.665,7.835,17.5,17.5,17.5s17.5-7.835,17.5-17.5v-2.749h20.872v2.749c0,9.665,7.835,17.5,17.5,17.5
	s17.5-7.835,17.5-17.5v-2.749h81.119v65.496h-25.247v-2.749C351.984,328.569,344.149,320.734,334.484,320.734z M296.112,255.488
	v-2.75c0-9.665-7.835-17.5-17.5-17.5s-17.5,7.835-17.5,17.5v2.75H240.24v-2.75c0-9.665-7.835-17.5-17.5-17.5s-17.5,7.835-17.5,17.5
	v2.75H68.248v-65.496h81.119v2.749c0,9.665,7.835,17.5,17.5,17.5s17.5-7.835,17.5-17.5v-2.749h20.873v2.749
	c0,9.665,7.835,17.5,17.5,17.5s17.5-7.835,17.5-17.5v-2.749h136.991v65.496H296.112z M240.24,169.992v-2.749
	c0-9.665-7.835-17.5-17.5-17.5s-17.5,7.835-17.5,17.5v2.749h-20.873v-2.749c0-9.665-7.835-17.5-17.5-17.5s-17.5,7.835-17.5,17.5
	v2.749H68.248v-65.496h25.247v2.749c0,9.665,7.835,17.5,17.5,17.5s17.5-7.835,17.5-17.5v-2.749h20.872v2.749
	c0,9.665,7.835,17.5,17.5,17.5s17.5-7.835,17.5-17.5v-2.749h192.864v65.496H240.24z M337.765,415.479H107.714
	c-21.762,0-39.466-17.704-39.466-39.466v-15.03h192.864v2.749c0,9.665,7.835,17.5,17.5,17.5s17.5-7.835,17.5-17.5v-2.749h20.872
	v2.749c0,9.665,7.835,17.5,17.5,17.5s17.5-7.835,17.5-17.5v-2.749h25.247v15.03C377.231,397.775,359.527,415.479,337.765,415.479z"
	/>
<g>
</g>
<g>
</g>
<g>
</g>
<g>
</g>
<g>
</g>
<g>
</g>
<g>
</g>
<g>
</g>
<g>
</g>
<g>
</g>
<g>
</g>
<g>
</g>
<g>
</g>
<g>
</g>
<g>
</g>
</svg>
